<?xml version="1.0" encoding="utf-8"?>
<!-- Generator: Adobe Illustrator 22.1.0, SVG Export Plug-In . SVG Version: 6.00 Build 0)  -->
<svg version="1.1" id="Layer_1" xmlns="http://www.w3.org/2000/svg" xmlns:xlink="http://www.w3.org/1999/xlink" x="0px" y="0px"
	 viewBox="0 0 512 512" style="enable-background:new 0 0 512 512;" xml:space="preserve">
<style type="text/css">
	.st0{fill:#73AF00;}
	.st1{fill:#F5F5F5;}
</style>
<rect y="0" class="st0" width="512" height="512"/>
<g>
	<path class="st1" d="M76.9,191.7c1,6.7,5.1,8.7,8.6,8.5c4.1-0.3,7.7-4.1,7.7-8.1v-22.8c0-1.1,0.9-2.1,2.1-2.1s2.1,0.9,2.1,2.1v22.9
		c0,2.8,1.4,5.3,3.6,6.9c1.4,0.9,3,1.4,4.7,1.4c1,0,2.1-0.2,3.1-0.6l2.1-0.8c0.2,19.2-1,36-1,36.3c-0.2,2.3,1.6,4.3,3.8,4.4
		c0.1,0,0.2,0,0.3,0c2.2,0,4-1.7,4.1-3.9c0.1-1.4,1.4-19.8,1-40.3l1.3-0.5c1.1-0.4,2.3-0.4,3.4,0.1c4.6,2.3,10.1,1.4,13.7-2.2
		l0.7-0.7c3.4-3.4,4.5-8.2,3-12.8l-3.5-10.6c1.9,0.6,4-0.3,4.9-2.1c1-2.1,0.2-4.5-1.9-5.6l-8.3-4.2c-1.5-0.8-3.3-0.5-4.6,0.6
		c-1.3,1.1-1.8,2.9-1.2,4.5l6.7,20.1c0.5,1.5,0.1,3.1-1,4.3l-0.7,0.7c-1.1,1.1-2.7,1.3-4.1,0.7c-2.7-1.3-5.8-1.6-8.6-0.9
		c-0.6-13.3-2-26.6-5.1-35.8c-0.7-2.2-3.1-3.4-5.3-2.6c-2.2,0.7-3.4,3.1-2.6,5.3c3,9,4.3,22.7,4.8,36.3l-5,2v-22.9
		c0-5.7-4.7-10.4-10.4-10.4s-10.4,4.7-10.4,10.4v20.1l-4.2-20.9c-0.5-2.3-2.6-3.7-4.9-3.3c-2.3,0.5-3.7,2.6-3.2,4.9L76.9,191.7z"/>
	<path class="st1" d="M84.9,156.8c2.3,0,4.2-1.9,4.2-4.2v-4.2c0-2.3-1.9-4.2-4.2-4.2s-4.2,1.9-4.2,4.2v4.2
		C80.7,155,82.6,156.8,84.9,156.8z"/>
	<path class="st1" d="M126.4,152.7h4.2c2.3,0,4.2-1.9,4.2-4.2s-1.9-4.2-4.2-4.2h-4.2c-2.3,0-4.2,1.9-4.2,4.2
		C122.2,150.8,124.1,152.7,126.4,152.7z"/>
	<path class="st1" d="M99.3,207.3l-20.8,12.5c-2,1.2-2.6,3.7-1.4,5.7c0.8,1.3,2.2,2,3.6,2c0.7,0,1.5-0.2,2.1-0.6l20.8-12.5
		c2-1.2,2.6-3.7,1.4-5.7S101.3,206.1,99.3,207.3z"/>
	<path class="st1" d="M155.3,214.6L155.3,214.6c0.4,1.3,1,2.7,2,3.8c1.7,2,4.2,3,7.1,2.8c4.1-0.3,6.8-2.1,8.6-4.5
		c0.3,0.2,0.6,0.4,0.9,0.5c2.2,1.1,4.8,1,7.3-0.2c6.3-3.2,7.6-10.7,7.4-14.6c-0.1-2.3-2.1-3.9-4.3-3.9c-2.3,0.1-4.1,2-4,4.3
		c0,0.1,0.1,5-2.9,6.8c-0.5-0.7-1.1-2.2-1.3-3.5c-0.4-2.1-2.3-3.6-4.4-3.5c-2.2,0.2-3.8,2-3.8,4.1c0,0.6-0.1,5.9-4.3,6.4
		c-0.5-0.7-0.5-3.4,0-5.4c0.4-1.7-0.3-3.4-1.7-4.4c-1.4-1-3.3-1-4.7,0l-2.3,1.6c-1.1-24.1-3.6-52.2-3.7-52.5c-0.2-2.3-2.2-4-4.5-3.8
		c-2.3,0.2-4,2.2-3.8,4.5c0,0.4,3,32.9,3.9,57.7c-0.2,0.2-0.4,0.4-0.6,0.6c-1.6-4.1-4.9-6.8-9.1-7.1c-5.9-0.5-12.3,3.5-14.6,9.3
		c-2,4.9-0.7,9.8,3.2,12.4c2.8,1.9,7.1,2.4,12.4,0.6c-1.3,4.6-3.7,9.2-6.8,12.8c-2.8,3.2-7.4,6.9-13.3,6.8c-3.4-0.1-6.1-1.3-8.1-3.4
		c-4.8-5.3-4.4-14.8-4.4-14.9c0.1-2.3-1.6-4.2-3.9-4.4c-2.3-0.2-4.3,1.6-4.4,3.9c0,0.5-0.6,13,6.5,20.9c3.5,3.9,8.2,5.9,13.9,6.2
		c0.3,0,0.6,0,0.8,0c6.9,0,13.7-3.4,19.1-9.7c5.1-5.9,8.5-13.9,9.5-21.3c0,14.2-8.6,30.2-19.9,37.3c-4.8,3-12.3,5.7-20.8,1.5
		c-10.4-5.2-9.2-17.1-9.1-17.6c0.3-2.3-1.3-4.4-3.6-4.6c-2.3-0.3-4.4,1.3-4.6,3.6c-0.1,0.7-2.1,18.3,13.7,26c4.1,2,8.3,3,12.6,3
		c5.5,0,11-1.6,16.3-4.9c13.8-8.6,23.9-27.3,23.9-44.4C155.5,220.6,155.4,217.7,155.3,214.6z M130.3,218.9c-0.7-0.5-0.2-2.1,0-2.4
		c0.9-2.2,3.6-4.1,5.8-4.1c0.1,0,0.2,0,0.3,0c0.5,0,1.9,0.2,2.5,3.3c0.1,0.3,0.1,0.7,0.2,1C134.5,219.5,131.4,219.6,130.3,218.9z"/>
	<path class="st1" d="M86.9,257.1c-2-1.2-4.5-0.5-5.7,1.5c-0.2,0.3-0.4,0.7-0.7,1c0-0.1-0.1-0.2-0.1-0.3c-1.7-4.6-0.5-11.7,0.1-14.1
		c0.6-2.2-0.7-4.5-2.9-5.1c-2.2-0.6-4.5,0.7-5.1,2.9c-0.3,1.1-2.9,11.2,0.1,19.2c1.9,5.1,4.8,6.4,7,6.5c0.2,0,0.4,0,0.6,0
		c4.5,0,7.4-4.5,8.3-5.9C89.6,260.8,88.9,258.3,86.9,257.1z"/>
	<path class="st1" d="M163.6,181.7c0.9,0,1.8-0.3,2.6-0.9l20.9-16.4c0.3-0.2,0.5-0.5,0.7-0.8c3-1.8,5.1-5.1,5.1-8.9
		c0-5.7-4.7-10.4-10.4-10.4s-10.4,4.7-10.4,10.4c0,3.2,1.5,6,3.8,7.9L161,174.3c-1.8,1.4-2.1,4-0.7,5.8
		C161.2,181.2,162.4,181.7,163.6,181.7z M182.5,152.7c1.1,0,2.1,0.9,2.1,2.1s-0.9,2.1-2.1,2.1s-2.1-0.9-2.1-2.1
		S181.3,152.7,182.5,152.7z"/>
	<path class="st1" d="M177.6,177.8c-2.2-0.7-4.5,0.4-5.3,2.6c-0.4,1.3-2.5,8.2,1.6,12.3c1.6,1.6,3.7,2.4,6.2,2.4
		c1.7,0,3.6-0.3,5.7-1.1c2.2-0.7,3.4-3.1,2.6-5.3c-0.7-2.2-3.1-3.4-5.3-2.6c-2.3,0.8-3.3,0.6-3.4,0.7c-0.2-0.6-0.1-2.5,0.3-3.8
		C180.9,180.9,179.7,178.5,177.6,177.8z"/>
	<path class="st1" d="M225.1,160.6c0.4,0.1,0.8,0.2,1.2,0.2c1.8,0,3.5-1.2,4-3l2.4-8.3c0.6-2.2-0.6-4.5-2.8-5.2
		c-2.2-0.6-4.5,0.6-5.2,2.8l-2.4,8.3C221.6,157.7,222.9,160,225.1,160.6z"/>
	<path class="st1" d="M200.9,160.1c0.7,0.4,1.4,0.6,2.1,0.6c1.4,0,2.8-0.7,3.6-2.1c1.2-2,0.5-4.5-1.5-5.7c-0.8-0.5-0.7-1.9-0.7-2.1
		c0.1-1.1,0.8-2.4,1.9-2.8c2.2-0.7,3.4-3,2.7-5.2c-0.7-2.2-3-3.4-5.2-2.7c-4.1,1.3-7.2,5.1-7.7,9.8
		C195.6,154.2,197.5,158.1,200.9,160.1z"/>
	<path class="st1" d="M167.9,227.4c-2.3,0-4.2,1.9-4.2,4.2c0,2,1.5,3.7,3.4,4.1c0.2,0.3,0.8,1.4,0.8,4.2c0,2.3,1.9,4.2,4.2,4.2
		s4.2-1.9,4.2-4.2C176.2,227.6,168.3,227.4,167.9,227.4z"/>
	<path class="st1" d="M238.4,210.2c0.5,0.1,1,0.1,1.6,0.1c3.3,0,6.6-1.6,9.8-4.9c1.6-1.6,1.6-4.3,0-5.9c-1.6-1.6-4.3-1.6-5.9,0
		c-2.5,2.5-3.8,2.5-4.2,2.5c-0.8-0.1-1.5-1.1-1.7-1.4c-1-2-3.5-2.8-5.5-1.8c-2.1,1-2.9,3.5-1.9,5.6
		C230.9,204.9,233.3,209.4,238.4,210.2z"/>
	<path class="st1" d="M309,181c0-0.1-0.1-0.1-0.1-0.2c-0.7-2.2-3.1-3.3-5.2-2.6c-2.2,0.7-3.4,3.1-2.6,5.3c0.3,1,2.2,5.9,6.8,6.5
		c0.3,0,0.6,0.1,0.9,0.1c2.9,0,5.6-1.9,8-5.5c1.3-1.9,0.8-4.5-1.2-5.8c-1.9-1.3-4.5-0.8-5.8,1.2C309.6,180.4,309.3,180.8,309,181z"
		/>
	<path class="st1" d="M300.9,256.5c0-17.7-0.8-34.3-1.9-48.9c5.9,10.2,11.2,20.6,14.6,29.6c0.6,1.7,2.2,2.7,3.9,2.7
		c0.5,0,1-0.1,1.5-0.3c2.1-0.8,3.2-3.2,2.4-5.4c-5.3-14-14.7-30.7-24-45.5c-2.3-22.4-4.8-36.6-4.9-36.8c-0.4-2.3-2.6-3.8-4.8-3.3
		c-2.3,0.4-3.8,2.6-3.3,4.8c0,0.2,1.3,7.5,2.9,19.8c-3.2-4.7-6.2-9-8.6-12.5l0.2,0.1c2.2,0.7,4.5-0.4,5.3-2.6
		c0.7-2.2-0.5-4.5-2.6-5.3l-12.5-4.2c-1.7-0.6-3.6,0-4.7,1.5c-0.3,0.4-0.5,0.8-0.6,1.3c-2.5-1.8-5.7-3.3-8.7-2.1
		c-1.8,0.8-4,2.6-4,7.4c0,3.6,1.4,7.6,2.9,11.8c2.4,6.9,4,12,1.4,14.5c-1.4,1.3-2.9,1.9-4.3,1.5c-2.6-0.6-5.1-4.1-6.8-9.1
		c-0.1-0.2-0.2-0.4-0.3-0.6c0.9-6.4,0.5-14.2-1.3-23c-0.4-2.3-2.6-3.7-4.9-3.3c-2.3,0.4-3.7,2.6-3.3,4.9c2.7,13.6,1.9,24.6-2.2,29.6
		c-1.6,1.9-3.6,2.8-6.2,2.8c-0.8,0-1.4-0.3-2-0.9c-3.3-3.8-3.3-16-2.2-23.4c0.2-1.2-0.2-2.4-1-3.3c-0.8-0.9-1.9-1.4-3.1-1.4
		c-7.1,0-9.9,8.1-12.3,15.3c-1,3.2-3,9-4.4,9.6c-2.5,0-4.1-7.4-4.2-12.5c0-2.3-1.9-4.1-4.2-4.1c0,0,0,0,0,0c-2.3,0-4.1,1.9-4.1,4.1
		c0,9.6,3.3,20.8,12.5,20.8c6.9,0,9.6-7.5,11.9-14.4c0.4,5.5,1.6,11.2,4.7,14.8c2.2,2.5,5,3.8,8.3,3.8c5.1,0,9.5-2,12.6-5.9
		c0.6-0.7,1.1-1.5,1.5-2.3c2.4,3.4,5.4,5.7,8.7,6.5c1,0.2,2,0.4,2.9,0.4c3.2,0,6.3-1.3,9-3.9c0.6-0.5,1-1.1,1.4-1.7
		c1,0.3,2,0.5,3.1,0.5c3.4,0,6.6-1.4,8.6-2.6c1.9-1.2,2.5-3.8,1.3-5.7c-1.2-1.9-3.8-2.5-5.7-1.3c0,0-2.8,1.6-4.7,1.2
		c0-4.6-1.6-9.4-3.1-13.7c-0.9-2.4-1.7-4.9-2.1-6.9c0.3,0.3,0.7,0.6,1,0.9c1.6,1.6,4.3,1.6,5.9,0c0.3-0.3,0.4-0.6,0.6-0.9
		c4.3,5.9,13.2,18.4,22.3,32.8c1.7,17.7,3.3,40.2,3.3,64.9c0,2.3,1.9,4.2,4.2,4.2S300.9,258.8,300.9,256.5z"/>
	<path class="st1" d="M305,165.1c0,2.3,1.9,4.2,4.2,4.2s4.2-1.9,4.2-4.2c0-4.9-3.8-12.8-4.6-14.3c-1-2-3.5-2.9-5.6-1.9
		c-2.1,1-2.9,3.5-1.9,5.6C302.8,157.5,305,163,305,165.1z"/>
	<path class="st1" d="M286.1,257c-2-1-4.5-0.2-5.6,1.8c-0.4,0.9-1.1,1.8-1.7,2.5c-0.2-1.7,0.3-4.9,1.1-7.7c0.6-1.8-0.2-3.8-1.8-4.8
		c-1.6-1-3.7-0.7-5.1,0.6l-8.3,8.3c-1.6,1.6-1.6,4.3,0,5.9s4.3,1.6,5.9,0l0.2-0.2c0.4,1.7,1,3.2,2.2,4.4c1.6,1.6,3.4,2.4,5.4,2.4
		c0.4,0,0.8,0,1.1-0.1c4.7-0.8,7.6-6,8.4-7.5C289,260.5,288.2,258,286.1,257z"/>
	<path class="st1" d="M284.5,223.5h-29.3c0.3-1,0.5-2,0.8-3c11.7-2.4,18.6-6.2,20.7-11.2c0.7-1.7,1.4-5.3-1.6-9.3
		c-2.7-3.7-6.5-5.3-10.5-4.5c-5.9,1.2-11.2,7.6-14.9,17.7c-11.7,2-19.2,6.2-24,10.4c-1.7-17-8.3-27.1-8.6-27.6
		c-1.3-1.9-3.9-2.4-5.8-1.2c-1.9,1.3-2.4,3.9-1.2,5.8c0.1,0.1,7.6,11.6,7.6,30.9c0,19-15.1,33.2-24.9,33.2c-4.7,0-6.7-5.5-7.6-10.2
		c9.6-6.7,18.1-14.5,19.9-22c2.5-10.1-0.7-17.6-2.8-22.5c-0.1-0.2-0.2-0.5-0.3-0.7c0.1,0.1,0.2,0.2,0.3,0.2c1.6,1.6,4.3,1.6,5.9,0
		c1.6-1.6,1.6-4.3,0-5.9c-2.4-2.4-7.1-6.2-11.4-4.5c-1.8,0.8-4,2.6-4,7.4c0,2.1,0.9,4.2,1.9,6.7c1.9,4.4,4.2,9.8,2.3,17.2
		c-1.1,4.4-6.5,9.7-13.6,15c-0.8-0.9-1.9-1.5-3.1-1.5h0c-2.3,0-4.1,1.9-4.1,4.1c0,0.7,0,1.5,0.1,2.4c-8.9,5.8-19,11.1-26.7,14.6
		c-2.1,0.9-3,3.4-2.1,5.5c0.7,1.5,2.2,2.4,3.8,2.4c0.6,0,1.2-0.1,1.7-0.4c2.3-1.1,13.4-6.2,24.8-13.3c2.1,7.1,6.5,13.7,15,13.7
		c10,0,21.3-8.1,27.8-20.3c0.8,1.4,1.7,2.7,2.8,4c10.5,12.1,30.9,12.2,31.7,12.2c2.2,0,4.1-1.8,4.2-4c0.1-2.2-1.6-4.1-3.9-4.3
		c0,0-3.3-0.4-5.2-2.5c-1.1-1.3-1.6-3.1-1.4-5.5c0.4-5.1,16.9-8.9,31.5-9.2c1.7,0,3.3-1.1,3.9-2.8l4.2-11.7c0.5-1.3,0.3-2.7-0.5-3.8
		C287.1,224.2,285.9,223.5,284.5,223.5z M266.3,203.7c0.1,0,0.2,0,0.3,0c0.4,0,1,0.2,1.9,1.3c0.2,0.2,0.7,0.9,0.5,1.3
		c-0.5,1.2-3.3,3.1-9.3,4.9C262.3,206,264.9,204,266.3,203.7z M241.2,258.3c-4.2-1.4-8.5-3.5-11.5-7c-3.3-3.8-4.5-8.6-3.7-14.6
		c0.1-0.3,0.4-0.9,0.9-1.8c5.9-0.5,21.5,1.8,22.6,6.2c-4.8,2.5-8.4,5.9-8.8,10.8C240.4,254.5,240.7,256.6,241.2,258.3z"/>
	<path class="st1" d="M329.7,163.8l-4.2-12.5c-0.7-2-2.7-3.2-4.8-2.7c-2.1,0.4-3.5,2.4-3.3,4.5c2.9,28.7,8.3,84.6,8.3,91
		c0,5.8-10.2,17.1-26.8,25.4c-2.1,1-2.9,3.5-1.9,5.6c0.7,1.5,2.2,2.3,3.7,2.3c0.6,0,1.3-0.1,1.9-0.4c15.1-7.6,31.4-21,31.4-32.8
		c0-6.1-4.2-50.3-6.7-75.1C329.4,168.1,330.4,165.9,329.7,163.8z"/>
	<path class="st1" d="M364.4,201.3c0.8,0.8,1.9,1.2,2.9,1.2c0.7,0,1.4-0.2,2.1-0.5c1.6-0.9,2.4-2.8,2-4.6c-0.7-2.9-1-6.6-0.6-8.1
		c2.1,0.1,4-1.4,4.3-3.6c0.3-2.3-1.3-4.4-3.5-4.7c-2.7-0.4-5.2,0.4-6.8,2.3c-1.1,1.2-1.7,2.8-2.1,4.5l-4.8-4.8
		c-1.6-1.6-4.3-1.6-5.9,0c-1.6,1.6-1.6,4.3,0,5.9L364.4,201.3z"/>
	<path class="st1" d="M373.7,205.6l-15.6,11.2c-1.9,1.3-2.3,3.9-1,5.8c0.8,1.1,2.1,1.7,3.4,1.7c0.8,0,1.7-0.3,2.4-0.8l15.6-11.2
		c1.9-1.3,2.3-3.9,1-5.8C378.2,204.7,375.6,204.3,373.7,205.6z"/>
	<path class="st1" d="M372.4,221.3c-1.3,1.7-1.1,4.1,0.4,5.5c0.2,0.3,1,1.9,0.8,6c-0.1,2.3,1.7,4.2,4,4.3c0.1,0,0.1,0,0.1,0
		c2.2,0,4.1-1.8,4.1-4c0.3-8.5-2.5-11.6-3.7-12.5C376.4,219.1,373.8,219.4,372.4,221.3z"/>
	<path class="st1" d="M408.6,251.8c2.3,0,4.2-1.9,4.2-4.2c0-6.1-0.3-13-0.8-20.1c4.1,6.8,7.5,13,9.7,18.1c0.7,1.6,2.2,2.5,3.8,2.5
		c0.5,0,1.1-0.1,1.6-0.3c2.1-0.9,3.1-3.3,2.2-5.5c-3.8-8.9-10.9-20.6-19-32.8c-1.6-15.2-3.8-30.2-5.4-40.9c0.9,0.1,1.8-0.1,2.6-0.6
		c1.3-0.8,1.9-2.3,1.8-3.8c0.1,0.4,0.2,0.8,0.5,1.2c0,0,2.7,4.4,1.5,10.2c-0.5,2.2,1,4.4,3.2,4.9c0.3,0.1,0.6,0.1,0.8,0.1
		c1.9,0,3.7-1.4,4.1-3.3c1.9-9.1-2.5-16-2.6-16.3c-1.2-1.9-3.8-2.5-5.7-1.3c-1.3,0.8-1.9,2.3-1.9,3.8c-0.1-0.4-0.2-0.8-0.5-1.2
		l-7-10.9c-1.1-1.7-3.2-2.3-5-1.6c-1.8,0.7-2.9,2.6-2.6,4.6c0.1,0.3,3.2,18.6,6,40.5c-3.2-4.5-6.4-8.9-9.5-13.1
		c-0.5-6.3-1-12.1-1.4-16.9c0.2-0.1,0.5-0.2,0.7-0.3c2.1-1,2.9-3.5,1.9-5.6l-4.2-8.3c-0.9-1.8-2.9-2.7-4.9-2.1
		c-1.9,0.6-3.2,2.4-3,4.4c0.5,5,1,10.4,1.5,16.2c-2.6-3.5-5.1-6.6-7.1-9.3c0.4-0.3,0.8-0.8,1-1.3c1-2.1,0.2-4.5-1.9-5.6l-8.3-4.2
		c-1.7-0.9-3.9-0.4-5.1,1.1c-1.2,1.5-1.2,3.7,0,5.2c0.2,0.3,10.5,13.1,22.7,29.7c2.1,27.4,3.5,56,1.5,62c-0.4,1.1-1,2.4-1.6,2.4
		c-2.5,0.3-8.5-5.3-11.5-11.3c-1.7-3.5-4.2-3.8-5.6-3.8c-4.5,0.3-6.2,5.2-9.4,14.1c-2.3,6.4-5.1,14.3-8.3,17.6
		c-1.7-2.1-3.9-9.1-5.2-16.4c0.6,1.6,2.1,2.8,3.9,2.8c2.3,0,4.2-1.9,4.2-4.2c0-6.2-4.3-53.4-6.8-79.2c2-0.8,3.1-3.1,2.4-5.2
		l-4.2-12.5c-0.7-2-2.7-3.2-4.8-2.8c-2.1,0.4-3.5,2.4-3.3,4.5c2.8,29.6,8.1,86.9,8.3,94.8c0-0.1,0-0.1,0-0.2
		c-0.3-2.3-2.4-3.8-4.7-3.5c-2.3,0.3-3.8,2.4-3.5,4.7c1.2,8.5,4.3,23.1,11.5,25.5c0.6,0.2,1.3,0.4,2.2,0.4c1.6,0,3.7-0.6,5.8-2.7
		c4.5-4.5,7.6-13.1,10.3-20.8c0.6-1.7,1.3-3.8,2-5.5c3.8,5.6,10.5,12.5,17.2,12c2.4-0.2,6.7-1.4,8.9-8.1c2.2-6.6,1.3-29.7-0.2-51.9
		c3.5,4.9,7,9.9,10.3,14.9c1.3,12.4,2.2,24.9,2.2,35.1C404.5,250,406.3,251.8,408.6,251.8z"/>
	<path class="st1" d="M440.1,230c-2.9-21.9-7-47.3-9.6-62.9c1.2,0.3,2.5,0.1,3.5-0.7c1.8-1.4,2.2-4,0.8-5.8l-7.5-9.9
		c-1.2-1.5-3.2-2.1-5-1.3s-2.8,2.6-2.4,4.5c0.1,0.4,7.5,43.1,12.1,77.2c1.8,13-0.8,24.7-6.8,31.2c-3.9,4.2-9,6-15.2,5.7
		c-2.3-0.1-4.3,1.6-4.4,3.9c-0.1,2.3,1.6,4.3,3.9,4.4c0.7,0,1.4,0.1,2.1,0.1c7.8,0,14.6-2.9,19.8-8.4
		C439,259.5,442.3,245.7,440.1,230z"/>
	<path class="st1" d="M394.4,257.4c-1.5,1.7-1.4,4.3,0.2,5.8c0.2,0.2,0.5,0.6,0.5,0.9c0,0.1-0.2,0.5-0.6,0.9c-1.6,1.6-1.6,4.3,0,5.9
		c0.8,0.8,1.9,1.2,2.9,1.2s2.1-0.4,2.9-1.2c2.6-2.6,3.1-5.3,3.1-7.1c-0.1-3.8-2.7-6.3-3.3-6.8C398.5,255.6,396,255.7,394.4,257.4z"
		/>
	<path class="st1" d="M379.8,348.5h-4.2h-24.9v-4.2c0-2.3-1.9-4.2-4.2-4.2s-4.2,1.9-4.2,4.2v4.2H122.2c8.3,8.3,24.9,12.5,37.4,12.5
		c8.9,0,120.4,0,182.8,0v8.3c0,2.3,1.9,4.2,4.2,4.2h33.2c6.9,0,12.5-5.6,12.5-12.5C392.3,354.1,386.7,348.5,379.8,348.5z
		 M379.8,365.1h-29.1v-4.2c20,0,33.2,0,33.2,0l-0.7-2.2c0.4,0.7,0.7,1.4,0.7,2.2C384,363.2,382.1,365.1,379.8,365.1z"/>
</g>
<image style="overflow:visible;" width="32" height="21" xlink:href="Kuwait_Flag.svg.png"  transform="matrix(1 0 0 1 211.481 266.793)">
</image>
</svg>
