<?xml version="1.0" standalone="no"?>
<!DOCTYPE svg PUBLIC "-//W3C//DTD SVG 20010904//EN"
 "http://www.w3.org/TR/2001/REC-SVG-20010904/DTD/svg10.dtd">
<svg version="1.0" xmlns="http://www.w3.org/2000/svg"
 width="570.000000pt" height="570.000000pt" viewBox="0 0 570.000000 570.000000"
 preserveAspectRatio="xMidYMid meet">
<metadata>
Created by potrace 1.11, written by Peter Selinger 2001-2013
</metadata>
<g transform="translate(0.000000,570.000000) scale(0.100000,-0.100000)"
fill="#000000" stroke="none">
<path d="M2156 5669 c-58 -14 -268 -117 -378 -186 -78 -50 -99 -59 -108 -48
-19 23 -82 47 -122 47 -51 -1 -95 -28 -206 -125 -84 -73 -227 -228 -281 -302
-23 -33 -24 -34 -90 -29 -84 7 -116 -11 -172 -98 -140 -218 -257 -554 -294
-849 -9 -68 -17 -130 -18 -138 -1 -9 -24 6 -59 38 l-58 53 0 -48 c0 -73 35
-295 64 -411 64 -251 159 -452 311 -660 16 -21 16 -21 -40 -28 -31 -4 -80 -5
-110 -3 -36 3 -55 1 -55 -6 0 -29 127 -193 234 -303 129 -134 224 -213 377
-314 73 -48 96 -68 84 -73 -9 -3 -57 -6 -106 -6 l-90 0 23 -32 c106 -150 358
-313 591 -383 l92 -28 -52 -54 c-29 -30 -53 -61 -53 -69 0 -9 55 -41 147 -85
81 -38 148 -71 149 -72 2 -2 8 -45 14 -97 50 -433 193 -736 476 -1011 133
-129 386 -319 424 -319 38 0 291 190 424 319 283 275 426 578 476 1011 6 52
12 95 14 97 1 1 68 34 149 72 92 44 147 76 147 85 0 8 -24 39 -53 69 l-52 54
92 28 c233 70 485 233 591 383 l23 32 -90 0 c-49 0 -97 3 -106 6 -12 5 11 25
84 73 153 101 248 180 377 314 107 110 234 274 234 303 0 7 -19 9 -55 6 -30
-2 -79 -1 -110 3 -56 7 -56 7 -40 28 151 206 238 388 306 642 32 122 69 350
69 429 l0 48 -57 -53 c-36 -32 -59 -47 -60 -38 -1 8 -9 70 -18 138 -37 295
-154 631 -294 849 -56 87 -88 105 -172 98 -66 -5 -67 -4 -90 29 -54 74 -197
229 -281 302 -111 97 -155 124 -206 125 -40 0 -103 -24 -122 -47 -9 -11 -30
-2 -108 48 -113 71 -319 172 -380 185 -65 15 -110 0 -160 -52 l-43 -46 -82 21
c-106 26 -261 36 -310 19 -21 -6 -51 -23 -67 -37 l-30 -25 -30 25 c-16 14 -46
31 -67 37 -49 17 -204 7 -310 -19 l-83 -21 -41 45 c-23 25 -54 48 -68 51 -14
3 -33 7 -41 9 -8 1 -32 -1 -54 -6z m113 -65 c17 -14 31 -31 31 -37 0 -7 -42
-27 -93 -45 -500 -182 -904 -563 -1114 -1052 -96 -225 -142 -440 -152 -712
l-6 -177 -43 27 -44 27 5 185 c5 195 23 318 71 476 97 323 250 584 486 828
166 171 357 314 555 414 199 100 250 111 304 66z m1423 -46 c359 -176 664
-448 867 -775 186 -301 279 -610 288 -963 l5 -185 -44 -27 -43 -27 -6 177 c-7
200 -26 325 -74 492 -169 587 -614 1062 -1192 1272 -51 18 -93 38 -93 45 0 6
14 23 32 38 48 41 98 32 260 -47z m-953 -29 c17 -6 36 -20 42 -30 9 -17 6 -19
-33 -19 -64 0 -236 -27 -327 -50 -628 -160 -1120 -649 -1274 -1265 -42 -168
-52 -249 -52 -458 0 -108 -3 -197 -7 -197 -4 0 -18 5 -32 11 -22 11 -25 18
-31 110 -16 220 34 539 116 747 243 614 789 1053 1439 1155 53 9 128 7 159 -4z
m505 -19 c513 -112 983 -472 1225 -940 33 -63 73 -150 90 -192 82 -208 132
-527 116 -747 -6 -92 -9 -99 -31 -110 -14 -6 -28 -11 -32 -11 -4 0 -7 98 -8
218 -1 224 -5 257 -55 457 -38 146 -111 316 -201 463 -235 385 -622 668 -1069
782 -90 23 -263 50 -326 50 -35 0 -41 3 -36 16 18 49 142 54 327 14z m-233
-80 c403 -41 749 -203 1037 -485 69 -67 123 -127 121 -133 -4 -11 -304 -242
-315 -242 -3 0 -48 40 -99 89 -199 190 -435 311 -692 356 -111 19 -317 19
-429 0 -250 -44 -503 -177 -696 -365 l-87 -86 -143 109 c-212 161 -205 126
-57 271 368 360 861 536 1360 486z m-1417 -43 c17 -12 13 -18 -45 -64 -95 -76
-266 -255 -346 -363 -256 -347 -383 -705 -402 -1133 l-6 -147 -39 27 -39 28 6
160 c14 388 153 773 394 1098 94 125 277 315 356 368 63 41 92 47 121 26z
m2633 -26 c79 -53 262 -243 356 -368 241 -325 380 -710 394 -1098 l6 -160 -39
-28 -39 -27 -6 147 c-19 428 -146 786 -402 1133 -80 108 -251 287 -346 363
-58 46 -62 52 -45 64 29 21 58 15 121 -26z m-3239 -380 c10 -6 3 -24 -32 -78
-182 -281 -297 -638 -322 -995 -3 -54 -9 -98 -13 -98 -4 0 -26 19 -48 43 l-42
42 9 105 c27 298 128 616 275 865 33 57 66 100 83 109 30 17 70 20 90 7z
m3812 -6 c20 -10 48 -48 85 -110 147 -249 248 -567 275 -865 l9 -105 -42 -42
c-22 -24 -44 -43 -48 -43 -4 0 -10 44 -13 98 -25 357 -140 714 -322 995 -35
54 -42 72 -32 78 20 13 56 11 88 -6z m-1761 -181 c63 -18 150 -100 194 -182
l29 -53 -287 -140 c-158 -77 -289 -138 -290 -137 -11 11 -126 318 -119 318 3
0 15 -7 27 -15 22 -14 25 -13 60 35 59 79 154 148 242 176 54 17 82 17 144 -2z
m-539 -171 c0 -4 -32 -107 -71 -228 -38 -121 -75 -235 -80 -253 -10 -31 -29
-42 -345 -197 -291 -142 -366 -185 -324 -185 15 0 12 -27 -5 -53 -42 -64 -67
-246 -46 -325 l12 -44 47 6 c26 3 88 8 137 12 l90 6 126 -129 c126 -129 214
-232 205 -240 -9 -9 -120 48 -216 110 -137 89 -197 111 -295 111 -97 -1 -145
-18 -288 -108 -102 -63 -142 -86 -150 -86 -19 0 -109 272 -126 382 -5 35 -15
88 -21 118 -7 31 -10 109 -8 180 3 116 5 129 33 178 36 67 110 134 163 150 53
16 121 15 169 -2 l40 -14 6 81 c11 178 108 307 251 337 83 17 187 -12 273 -77
l33 -24 30 34 c55 63 102 57 184 -21 42 -41 48 -44 42 -22 -29 116 -10 249 40
289 25 20 94 30 94 14z m30 -412 c-4 -7 -22 -20 -39 -27 -29 -12 -32 -12 -27
4 2 9 14 78 26 152 31 197 34 200 40 35 4 -82 3 -156 0 -164z m-59 127 c-13
-79 -27 -153 -32 -166 -8 -20 -56 -48 -66 -39 -2 2 22 83 54 180 31 97 59 175
61 172 3 -2 -5 -69 -17 -147z m113 46 c14 -56 28 -109 31 -117 7 -17 -24 -52
-36 -40 -4 4 -12 60 -18 123 -17 180 -15 183 23 34z m716 81 c9 -23 14 -25 82
-25 89 0 142 -22 186 -76 18 -21 32 -42 32 -46 0 -5 -66 -52 -147 -105 -167
-110 -166 -110 -178 1 -12 114 -22 113 -92 -11 -33 -59 -77 -140 -97 -178 -33
-64 -43 -74 -118 -122 -45 -29 -84 -50 -86 -48 -5 5 84 228 123 305 45 90 112
176 201 259 42 39 78 71 80 71 3 0 9 -11 14 -25z m-652 -177 c-4 -31 -5 -30
-20 22 -30 98 -31 121 -2 63 16 -34 24 -65 22 -85z m202 -30 l0 -30 34 26 c19
14 46 26 60 26 26 0 66 -31 66 -50 0 -6 -17 -45 -39 -88 -21 -42 -55 -123 -77
-179 -21 -57 -41 -103 -44 -103 -6 0 -81 188 -119 303 l-30 89 62 28 c69 32
87 27 87 -22z m1027 -54 c36 -21 96 -87 106 -117 2 -6 19 1 38 16 96 73 223
102 321 73 69 -20 148 -88 185 -160 26 -49 27 -59 31 -246 3 -125 0 -215 -8
-250 -6 -30 -15 -82 -21 -115 -19 -122 -89 -344 -119 -378 -3 -4 -44 16 -91
45 -224 138 -309 165 -430 134 -35 -9 -83 -28 -107 -41 -25 -14 -47 -25 -49
-25 -8 0 66 131 123 217 30 44 54 84 54 87 0 3 -74 6 -165 6 -91 0 -165 4
-165 8 0 4 29 36 64 71 l64 63 38 -12 c22 -7 57 -28 79 -45 106 -86 135 -85
209 5 31 38 54 74 51 80 -3 5 -23 10 -43 10 -28 0 -51 11 -96 45 -32 24 -75
50 -94 56 l-36 12 -144 -147 c-127 -130 -147 -146 -177 -146 -42 0 -45 10 -45
175 0 156 24 261 89 400 88 189 210 254 338 179z m-1179 -26 c11 -29 45 -117
76 -195 31 -78 56 -148 56 -156 0 -8 -15 -24 -34 -35 l-34 -20 -6 21 c-39 138
-105 420 -101 428 12 19 24 7 43 -43z m522 -24 c-5 -38 -10 -75 -10 -81 0 -12
-101 -86 -107 -79 -2 2 24 56 58 120 34 64 64 114 66 113 2 -2 -1 -35 -7 -73z
m-581 19 c5 -21 28 -108 50 -193 22 -85 43 -164 46 -175 8 -28 -25 -76 -68
-100 -20 -10 -38 -17 -41 -14 -3 2 -15 114 -27 248 -22 237 -22 244 -4 257 28
21 33 18 44 -23z m-99 -35 c1 -13 7 -144 14 -291 l13 -268 -25 -51 -24 -51
-75 6 c-41 3 -77 8 -80 11 -6 6 3 71 53 391 20 127 42 236 48 244 11 14 43 29
64 30 6 1 12 -9 12 -21z m727 -25 c-3 -10 -5 -2 -5 17 0 19 2 27 5 18 2 -10 2
-26 0 -35z m240 5 c29 -27 29 -42 -2 -112 -53 -121 -67 -190 -72 -373 -3 -95
-8 -173 -12 -173 -24 1 -34 34 -61 216 -16 109 -34 228 -40 264 -24 135 -25
125 12 153 81 62 128 69 175 25z m-1102 -169 c-14 -90 -36 -227 -48 -304 l-22
-140 -83 -3 -83 -3 7 28 c4 15 35 116 70 223 34 107 68 215 74 240 6 25 18 55
26 68 15 22 74 65 82 58 1 -2 -9 -77 -23 -167z m905 -84 c12 -88 28 -191 36
-229 8 -38 14 -88 14 -112 l0 -44 -40 0 c-22 0 -40 1 -40 3 -6 25 -17 564 -13
571 11 17 21 -25 43 -189z m-1005 153 c-4 -18 -33 -114 -65 -213 -32 -99 -63
-199 -69 -222 -15 -54 -51 -83 -105 -83 -39 0 -51 8 -186 125 -80 69 -146 132
-148 138 -3 12 536 284 566 286 10 1 12 -8 7 -31z m879 -180 c-9 -73 -20 -171
-23 -218 -4 -47 -13 -96 -20 -109 -11 -20 -18 -22 -49 -17 -21 3 -53 6 -73 6
-36 0 -37 1 -63 71 -14 38 -26 80 -26 92 0 12 28 74 63 137 59 109 66 117 132
162 85 58 83 62 59 -124z m-207 -15 c-67 -128 -74 -133 -93 -65 l-12 41 61 40
c34 22 63 38 65 36 3 -2 -7 -26 -21 -52z m-2332 -136 c129 -104 249 -182 356
-232 l85 -40 13 -70 c80 -464 509 -1003 988 -1244 135 -67 225 -94 323 -95 72
-1 93 3 142 26 64 30 111 85 129 152 12 42 7 177 -6 209 -7 17 -4 18 48 12 71
-9 142 8 202 47 25 17 44 32 42 35 -3 2 -33 -6 -68 -18 -119 -40 -224 -27
-267 33 -14 20 -50 23 -100 9 -17 -5 -32 -8 -32 -6 0 9 56 33 92 39 30 5 39
13 47 39 35 105 163 176 268 148 118 -32 160 -133 124 -299 -27 -125 5 -240
89 -316 61 -55 101 -69 200 -69 114 0 192 22 335 93 150 75 278 166 413 295
231 220 400 477 486 736 19 57 40 136 47 174 l13 70 115 58 c127 63 243 142
396 271 55 46 101 80 103 75 2 -5 -6 -57 -17 -117 -58 -304 -192 -592 -370
-797 -40 -46 -56 -72 -48 -76 7 -4 58 -12 115 -19 56 -7 102 -14 102 -17 0
-15 -112 -142 -192 -219 -151 -143 -327 -267 -563 -395 l-100 -54 85 -7 c47
-4 121 -10 165 -14 l80 -6 -35 -30 c-157 -134 -379 -229 -630 -270 -83 -14
-126 -25 -118 -30 8 -6 -66 -7 -177 -5 -163 4 -204 9 -289 31 -136 35 -236 87
-318 165 l-68 63 -68 -63 c-82 -78 -182 -130 -318 -165 -85 -22 -126 -27 -289
-31 -111 -2 -185 -1 -177 5 8 5 -35 16 -118 30 -251 41 -473 136 -630 270
l-35 30 80 6 c44 4 118 10 165 14 l85 7 -100 54 c-236 128 -412 252 -563 395
-80 77 -192 204 -192 219 0 3 46 10 103 17 56 7 107 15 114 19 8 4 -8 30 -48
76 -177 204 -311 492 -369 792 -27 141 -27 140 18 103 20 -18 82 -68 137 -113z
m2212 81 c6 -7 16 -34 22 -59 14 -49 11 -60 -39 -141 l-18 -29 -21 69 c-27 89
-26 120 1 149 24 26 41 29 55 11z m-1066 -110 c42 -35 99 -84 129 -110 l53
-47 -27 -7 c-18 -4 -40 -1 -62 10 -45 21 -61 20 -69 -4 -7 -21 -53 -50 -78
-50 -8 0 -30 -11 -50 -24 -42 -28 -47 -22 -47 52 0 78 47 242 68 242 5 0 42
-28 83 -62z m990 -54 c12 -50 20 -98 16 -107 -4 -10 -23 -18 -54 -22 -26 -3
-60 -9 -75 -14 l-26 -9 -7 95 c-4 51 -6 95 -4 97 2 2 29 19 59 39 39 27 56 33
62 24 4 -6 17 -53 29 -103z m1146 -1 c27 -22 52 -33 73 -33 51 0 30 -25 -23
-28 -40 -3 -54 2 -92 29 -51 37 -49 33 -33 58 14 22 17 21 75 -26z m-992 -35
c21 -48 22 -54 7 -65 -16 -13 -94 -18 -104 -7 -8 7 53 124 64 124 5 0 20 -24
33 -52z m44 -110 c27 -72 29 -68 -48 -68 -75 0 -91 11 -91 59 0 21 17 27 88
30 36 1 44 -3 51 -21z m152 7 c0 -5 -10 -12 -23 -15 -16 -4 -24 -14 -26 -33
-3 -22 -8 -27 -31 -27 -22 0 -29 7 -40 36 -11 30 -11 38 0 45 18 12 119 7 120
-6z m-1006 -14 c10 -18 -17 -23 -33 -7 -15 15 -15 16 5 16 12 0 24 -4 28 -9z
m148 2 c59 -9 24 -23 -60 -23 -67 0 -84 6 -66 23 8 9 76 9 126 0z m497 -10 c0
-30 -31 -53 -70 -53 -70 0 -72 39 -3 60 47 14 73 12 73 -7z m60 -29 c0 -27 -7
-33 -31 -27 -23 6 -24 16 -2 49 18 28 33 18 33 -22z m498 39 c-10 -2 -26 -2
-35 0 -10 3 -2 5 17 5 19 0 27 -2 18 -5z m-1279 -17 c19 -22 -32 -26 -60 -5
l-24 19 36 0 c20 0 42 -6 48 -14z m-205 -12 c31 -12 4 -24 -52 -23 l-57 1 40
13 c49 16 50 16 69 9z m726 -24 c0 -12 -64 -12 -100 0 -19 6 -9 8 38 9 35 1
62 -3 62 -9z m-708 -367 c37 -17 94 -50 128 -73 34 -23 96 -58 138 -78 71 -34
84 -37 167 -37 83 0 96 3 167 37 42 20 104 55 138 78 85 58 184 102 239 108
64 6 131 -22 284 -117 247 -153 346 -150 612 19 108 69 184 100 242 100 48 -1
135 -36 216 -88 34 -22 81 -52 105 -66 l42 -26 -26 -40 -27 -40 -31 21 c-17
11 -69 39 -116 62 -79 39 -91 42 -165 41 -102 -1 -154 -21 -309 -118 -143 -90
-197 -111 -277 -103 -62 5 -108 27 -284 135 -207 127 -311 122 -550 -28 -233
-146 -287 -146 -520 0 -63 39 -136 80 -164 91 -123 46 -230 32 -370 -52 -78
-46 -84 -48 -97 -32 -26 36 -39 66 -29 70 6 1 57 32 114 68 185 115 248 127
373 68z m6 -282 c33 -17 93 -51 132 -77 39 -25 101 -60 138 -77 60 -29 76 -32
159 -32 91 0 93 1 192 51 l99 52 -10 -30 c-6 -16 -18 -32 -27 -35 -83 -26
-134 -66 -151 -119 -14 -41 -40 -54 -108 -54 -62 1 -133 31 -270 118 -62 39
-137 79 -165 89 -70 24 -178 23 -241 -1 l-49 -19 -29 32 c-15 17 -28 35 -28
40 0 13 61 49 129 78 75 32 144 27 229 -16z m2250 -7 c42 -21 77 -44 77 -50 0
-5 -12 -25 -28 -43 l-27 -33 -48 19 c-67 26 -180 23 -252 -5 -30 -12 -108 -55
-174 -96 -142 -90 -197 -111 -276 -103 -87 8 -260 103 -260 143 0 12 -7 40
-15 63 -8 22 -13 41 -11 41 2 0 33 -18 69 -40 99 -60 177 -83 263 -78 84 6
143 31 293 125 187 117 252 127 389 57z m-2295 -253 c29 -10 98 -46 152 -81
54 -34 128 -77 164 -94 59 -28 76 -31 158 -31 91 0 93 0 194 53 56 29 104 51
106 49 1 -2 6 -23 9 -48 l6 -44 -87 -54 c-202 -125 -264 -123 -490 19 -63 39
-137 80 -166 91 -56 21 -193 134 -183 150 9 15 81 10 137 -10z m2197 9 c0 -18
-145 -132 -198 -156 -29 -13 -104 -55 -165 -93 -169 -105 -234 -121 -337 -82
-66 25 -197 107 -210 131 -11 21 -14 83 -4 93 4 4 19 -3 35 -13 15 -11 63 -37
106 -58 72 -34 85 -37 168 -37 106 0 145 15 313 122 58 37 128 75 156 85 55
19 136 24 136 8z m-2090 -855 l0 -95 -85 42 -85 42 22 23 c19 18 131 83 144
83 2 0 4 -43 4 -95z m1934 50 c24 -14 50 -33 59 -43 15 -17 11 -20 -68 -60
l-85 -42 0 95 0 95 26 -10 c14 -6 45 -21 68 -35z m-684 -899 l0 -484 -67 -54
c-38 -30 -112 -85 -165 -122 l-98 -68 -97 68 c-54 37 -128 92 -165 122 l-68
54 0 484 0 484 330 0 330 0 0 -484z"/>
<path d="M2722 5368 c3 -18 14 -63 24 -100 23 -85 14 -121 -33 -126 -45 -4
-59 23 -37 78 24 60 9 73 -76 68 -52 -3 -95 -17 -212 -66 -80 -34 -149 -62
-152 -62 -17 0 -1 36 33 73 45 50 65 84 52 91 -13 8 -129 -119 -137 -149 -22
-87 57 -84 277 10 72 31 136 54 142 52 25 -10 -337 -166 -422 -183 -17 -4 -41
1 -59 10 -40 21 -88 21 -96 0 -9 -24 -7 -63 4 -85 12 -21 50 -25 81 -9 14 8
19 7 19 -2 -1 -21 -39 -100 -66 -135 -13 -17 -24 -34 -24 -38 0 -12 63 31 91
63 25 28 29 41 29 90 l0 58 69 12 c80 13 181 52 311 117 49 25 92 45 95 45 3
0 5 -9 5 -20 0 -31 44 -70 79 -70 64 0 77 46 59 200 -12 99 -14 105 -37 108
-21 3 -23 1 -19 -30z"/>
<path d="M2856 5385 c-8 -22 -8 -129 1 -191 10 -73 21 -28 22 86 1 94 -9 140
-23 105z"/>
<path d="M2975 5376 c-29 -21 -12 -50 26 -42 17 3 38 0 49 -6 16 -10 23 -10
36 4 26 26 10 52 -26 45 -16 -4 -32 -2 -35 3 -9 14 -28 12 -50 -4z"/>
<path d="M3110 5316 c0 -26 -30 -46 -68 -46 -49 0 -66 -12 -57 -39 9 -30 50
-54 79 -47 19 5 26 1 36 -24 17 -42 86 -102 153 -134 71 -33 200 -54 254 -40
33 8 42 16 68 70 17 33 38 71 48 84 9 14 17 35 17 47 0 43 -26 23 -54 -42 -16
-36 -41 -79 -56 -95 -24 -26 -35 -30 -79 -30 -28 0 -70 7 -93 17 -71 27 -176
93 -209 131 -30 34 -31 39 -26 99 2 35 1 63 -4 63 -5 0 -9 -6 -9 -14z"/>
<path d="M3300 5201 c0 -30 140 -43 176 -16 17 13 13 14 -47 15 -37 0 -81 3
-98 6 -20 4 -31 3 -31 -5z"/>
<path d="M1910 5017 c0 -7 7 -22 15 -33 22 -29 18 -37 -15 -32 -29 4 -29 4
-23 -38 7 -57 -29 -120 -94 -163 -52 -34 -74 -38 -93 -16 -13 15 -40 21 -40 8
0 -4 12 -20 27 -35 51 -54 145 -24 206 67 21 31 26 33 37 20 17 -20 36 -19 52
3 7 10 21 21 31 25 30 11 18 51 -15 55 -18 2 -28 -1 -28 -10 0 -7 -11 -18 -25
-25 -24 -11 -25 -10 -19 15 3 15 19 38 35 52 37 32 37 54 0 91 -31 31 -51 37
-51 16z"/>
<path d="M3726 4994 c-26 -25 -20 -81 9 -100 36 -23 22 -34 -45 -34 -66 0
-105 12 -137 42 -34 32 -49 17 -19 -19 37 -44 74 -56 157 -51 63 3 74 7 95 31
32 37 41 90 20 122 -19 29 -56 33 -80 9z"/>
<path d="M1763 4941 c-3 -12 -14 -21 -23 -21 -20 0 -36 -33 -25 -50 9 -15 55
-12 61 5 3 8 15 17 26 20 29 10 21 59 -10 63 -17 3 -25 -2 -29 -17z"/>
<path d="M3870 4911 c0 -18 164 -39 174 -23 4 7 -12 13 -41 17 -27 3 -67 8
-90 11 -25 3 -43 1 -43 -5z"/>
<path d="M3917 4826 c-3 -7 2 -34 11 -60 15 -41 15 -48 2 -56 -26 -17 -41 -11
-83 30 -43 43 -67 46 -67 7 0 -42 65 -87 124 -87 27 0 40 6 52 25 21 33 29
106 15 134 -13 24 -46 28 -54 7z"/>
<path d="M2725 2656 c-17 -7 -36 -20 -44 -29 -12 -16 -4 -17 103 -17 64 0 116
4 116 9 0 15 -83 51 -116 51 -16 -1 -43 -7 -59 -14z"/>
</g>
</svg>
